<?xml version="1.0" standalone="no"?>
<!DOCTYPE svg PUBLIC "-//W3C//DTD SVG 20010904//EN"
 "http://www.w3.org/TR/2001/REC-SVG-20010904/DTD/svg10.dtd">
<svg version="1.0" xmlns="http://www.w3.org/2000/svg"
 width="300.000000pt" height="194.000000pt" viewBox="0 0 300.000000 194.000000"
 preserveAspectRatio="xMidYMid meet">
<g transform="translate(0.000000,194.000000) scale(0.100000,-0.100000)"
fill="#000000" stroke="none">
<path d="M955 1931 c-63 -16 -129 -53 -288 -160 -190 -128 -291 -226 -401
-389 -71 -106 -154 -271 -186 -371 -50 -157 -64 -265 -65 -486 0 -185 3 -220
22 -292 31 -115 81 -233 100 -233 8 0 13 6 10 12 -55 137 -71 182 -87 260 -35
164 -23 455 26 653 24 97 80 234 135 330 128 225 243 347 465 497 191 128 238
151 320 151 52 1 70 -4 130 -38 38 -21 123 -67 189 -102 177 -92 189 -117 103
-203 l-53 -52 -160 7 c-270 12 -264 12 -325 -18 -160 -81 -341 -299 -404 -489
-51 -151 -61 -336 -26 -451 31 -99 92 -184 168 -231 120 -74 181 -64 498 87
341 162 441 189 709 189 205 1 320 -22 494 -96 199 -84 369 -216 563 -435 97
-109 106 -84 11 29 -111 132 -191 204 -335 304 -109 75 -179 111 -308 159
-144 53 -248 70 -435 69 -260 -1 -364 -29 -685 -182 -241 -115 -307 -140 -373
-140 -90 0 -201 78 -250 175 -67 136 -63 371 12 553 78 194 220 356 377 433
l66 33 82 -12 c45 -7 138 -12 207 -12 l124 0 51 48 c119 112 102 158 -96 257
-63 32 -133 70 -155 85 -86 59 -162 79 -230 61z"/>
</g>
</svg>
