<?xml version="1.0" standalone="no"?>
<!DOCTYPE svg PUBLIC "-//W3C//DTD SVG 20010904//EN"
 "http://www.w3.org/TR/2001/REC-SVG-20010904/DTD/svg10.dtd">
<svg version="1.0" xmlns="http://www.w3.org/2000/svg"
 width="460pt" height="330pt" viewBox="0 0 460 330"
 preserveAspectRatio="xMidYMid meet">

<g transform="translate(0.000000,630.000000) scale(0.100000,-0.100000)"
fill="#000000" stroke="none">
<path d="M3836 6279 c-88 -22 -170 -71 -246 -148 -73 -73 -80 -85 -197 -321
-66 -135 -153 -294 -193 -354 -83 -124 -190 -242 -270 -295 -123 -83 -136 -85
-710 -86 l-495 -1 -120 -27 c-66 -15 -165 -41 -220 -58 -65 -20 -101 -27 -103
-20 -2 6 -27 44 -56 84 -80 112 -171 157 -320 157 -72 0 -153 -22 -205 -55
-59 -37 -135 -125 -170 -197 -31 -62 -32 -69 -20 -105 7 -21 11 -54 10 -73 -3
-52 14 -88 54 -111 34 -20 35 -23 35 -79 0 -75 26 -113 109 -158 91 -50 132
-49 210 6 44 31 70 42 97 42 l37 0 -6 -47 c-4 -27 -23 -150 -43 -275 l-37
-227 -331 -257 -331 -257 -94 -24 c-107 -27 -136 -41 -186 -84 -36 -32 -46
-68 -22 -86 19 -16 217 -45 306 -45 75 0 88 3 168 41 234 113 704 392 774 460
52 52 42 8 85 394 10 86 20 157 23 157 10 -1 118 -172 154 -245 33 -65 91
-237 166 -494 17 -57 30 -105 28 -107 -1 -1 -64 -18 -141 -37 -145 -37 -173
-53 -197 -109 -18 -44 9 -66 97 -79 78 -12 351 -3 401 12 22 7 75 7 164 0
l131 -11 90 46 c49 26 96 57 105 71 15 22 12 46 -45 355 l-60 331 61 78 c34
42 65 78 69 78 3 1 9 -18 13 -41 12 -80 47 -213 70 -264 26 -58 76 -119 116
-140 75 -38 273 -67 551 -80 l148 -7 19 -66 c11 -36 27 -93 37 -126 9 -33 19
-65 21 -72 3 -8 -22 -24 -64 -43 -147 -66 -163 -81 -163 -157 l0 -43 139 0
138 0 69 51 c38 28 84 65 102 83 32 29 33 34 29 81 -3 28 -15 100 -26 160 -12
63 -21 154 -21 213 0 125 -13 163 -67 190 -64 33 -112 42 -278 52 -134 8 -374
46 -389 61 -3 2 -7 153 -11 334 -7 337 -8 370 -20 418 -6 24 -4 27 16 27 35 0
164 59 244 112 200 131 312 283 458 623 143 333 204 444 286 517 136 122 329
79 403 -90 30 -67 23 -176 -15 -226 -16 -20 -46 -45 -67 -56 -44 -23 -129 -27
-134 -7 -2 6 -9 32 -16 57 -15 57 -67 110 -107 110 -55 0 -103 -71 -103 -153
0 -94 76 -189 190 -236 73 -31 174 -26 253 12 77 38 169 137 215 234 35 73 37
84 37 173 -1 75 -5 107 -23 152 -50 125 -167 241 -290 289 -65 25 -247 36
-316 18z m249 -55 c78 -20 134 -53 199 -118 64 -65 102 -129 123 -213 28 -114
-10 -231 -111 -340 -77 -83 -143 -118 -226 -118 -53 0 -75 6 -119 30 -60 33
-117 101 -126 149 -7 36 18 111 40 120 19 7 65 -50 65 -80 0 -32 25 -80 45
-88 35 -13 140 -5 180 13 87 40 125 110 125 229 0 98 -18 153 -72 216 -58 68
-121 96 -219 96 -112 0 -161 -20 -239 -99 -77 -78 -140 -195 -274 -505 -88
-203 -138 -297 -202 -383 -115 -153 -277 -270 -454 -327 l-65 -21 2 -55 c2
-54 21 -689 22 -762 1 -36 3 -38 54 -52 106 -31 256 -54 380 -60 199 -10 275
-31 295 -83 6 -15 13 -89 15 -163 3 -83 13 -173 26 -234 25 -116 30 -105 -89
-194 l-75 -57 -99 -3 c-89 -4 -98 -2 -92 13 3 9 6 21 6 26 0 9 50 34 173 87
44 19 47 23 47 57 0 37 -76 313 -90 328 -4 5 -59 10 -121 13 -247 8 -437 28
-544 59 -61 17 -105 60 -140 137 -27 60 -75 252 -75 304 0 38 -22 59 -52 50
-31 -9 -188 -198 -188 -226 0 -23 93 -553 109 -622 8 -35 7 -38 -28 -61 -99
-66 -111 -69 -254 -61 -85 4 -151 3 -184 -4 -50 -11 -347 -17 -388 -8 -11 3
-24 5 -30 5 -5 1 1 11 13 23 16 17 63 33 170 59 l147 35 3 36 c3 37 -12 94
-92 349 -85 273 -116 339 -235 504 -49 68 -61 80 -86 80 -38 0 -37 1 -70 -300
-15 -132 -28 -248 -31 -257 -14 -50 -784 -499 -881 -514 -37 -5 -222 9 -313
25 -2 1 12 12 33 26 20 14 85 38 142 53 l106 28 225 174 c125 96 277 215 340
263 62 49 116 93 120 98 10 17 96 600 90 615 -4 10 -26 14 -81 14 -73 0 -78
-2 -129 -40 -62 -47 -86 -49 -152 -15 -78 41 -94 65 -94 140 0 65 0 65 -40 90
-40 25 -45 36 -41 90 2 16 -3 46 -10 67 -11 35 -10 40 22 93 47 78 115 144
179 174 44 20 70 25 135 26 150 0 239 -55 313 -193 38 -71 47 -73 128 -43 76
29 203 60 349 86 125 22 145 23 560 19 358 -4 443 -2 510 11 125 23 195 63
306 174 131 130 231 286 379 587 111 223 124 244 182 301 129 123 292 169 453
127z"/>
<path d="M1875 3791 c-5 -16 7 -107 40 -301 2 -14 9 -56 15 -94 6 -38 13 -73
16 -78 8 -13 53 -8 139 15 67 18 81 26 83 44 3 18 -99 204 -225 411 -17 28
-59 30 -68 3z m155 -265 c39 -65 70 -121 70 -125 0 -9 -101 -33 -108 -26 -3 2
-13 55 -22 117 -9 62 -20 129 -24 148 -8 43 -8 43 84 -114z"/>
</g>
</svg>
